<svg id="Layer_1" data-name="Layer 1" xmlns="http://www.w3.org/2000/svg" viewBox="0 0 120.01 222.61"><defs><style>.cls-1{fill:#67bb87;}.cls-2{fill:#026735;}</style></defs><title>leaf2</title><path class="cls-1" d="M328.37,145.79a21.92,21.92,0,0,0-1.91,1.36c0-1.37,0-2.73-.09-4.1-.58-12.94-3.27-27.67-9.87-39-1.29-2.21-4.88-3-6.68-.86-.76.89-1.62,1.78-2.43,2.7A95,95,0,0,0,285.8,65.29c-2.78-3-7.38.14-6.53,3.8a11.88,11.88,0,0,1,.29,3.26c-.38-.74-.75-1.49-1.11-2.24a88.91,88.91,0,0,1-7.36-24.66c-.49-3.25-4.86-2.42-5.78,0-3.31,8.62-4.15,18.15-6,27.25l-.06.15a8.92,8.92,0,0,1-3.77-3.67c-1.91-3.29-6.69-2.39-7.8,1a225.19,225.19,0,0,0-7.7,32.43c-.19,1.13-.35,2.27-.53,3.41-.14-.2-.28-.39-.41-.61a4,4,0,0,0-7.31.95,236.19,236.19,0,0,0-7.66,37.85q-.18,1.78-.33,3.57a21.2,21.2,0,0,1-3.79-1.18c-1.81-.76-4.25.82-4.64,2.63-2.85,13.37,2.8,27.53,8.18,40a3.81,3.81,0,0,0-4.29,4.68c2,10.94,11.41,21.56,19.79,28.36a67.82,67.82,0,0,0,32.52,14.51c12.79,1.89,25.23.05,35.19-8.68,10.2-9,16.89-22.44,22.19-34.68,1.29-3,.23-5.51-2.74-6.74l-1.06-.45c3.78-11.72,6.67-23.78,9.37-35.76C335.23,147.11,331.58,143.77,328.37,145.79Zm-47-30.74c.1.12.22.21.33.32a9.49,9.49,0,0,0-3,.35c.06-.14.12-.29.17-.43a7.42,7.42,0,0,1,2-.84C281,114.65,281.19,114.86,281.36,115.05Z" transform="translate(-214.55 -43.05)"/><path class="cls-2" d="M329.19,150.11a101.57,101.57,0,0,1-6.44,12.17,3,3,0,0,1-.42-3.88c.45-.58-.33-1.41-.83-.82a4.43,4.43,0,0,0,.47,6,97.72,97.72,0,0,1-9.85,12.91,20.11,20.11,0,0,1-.7-8c.06-.58-.95-.72-1-.14a21.7,21.7,0,0,0,.62,9.39q-1.75,1.89-3.64,3.75c-3,2.92-6,5.74-9.12,8.53.07-2.52.29-5,.38-7.55,0-.68-1-.64-1,0-.35,2.91-.49,5.85-.94,8.74a1,1,0,0,0,0,.25l-2.47,2.21a81.11,81.11,0,0,1-7.21,5.88,38.63,38.63,0,0,0-.57-6.66c-.08-.36-.69-.38-.74,0a46.54,46.54,0,0,0-.15,7.66c-2.31,1.46-4.86,2.35-7.25,3.62q-3-18.22-4.95-36.65a30.19,30.19,0,0,0,7.77-3.28c3.26-.16,6.51,0,9.74-.32.75-.08,1-1.21.19-1.4a23.67,23.67,0,0,0-6.55-.39c2.3-1.54,4.46-3.19,6.43-4.72.89-.7,1.76-1.41,2.62-2.14,3.36.06,7.18,0,10.21-1.29.68-.28.69-1.44-.19-1.4-2.67.13-5.27.6-7.91.84A76.4,76.4,0,0,0,306,141.85c3.65-1,7.8-2.46,10.68-4.94.52-.45,0-1.46-.7-1.19-2.85,1.14-5.49,2.58-8.32,3.73a50.66,50.66,0,0,0,7.45-16.79c.72-1,1.47-2,2.29-2.9,1.07-1.19,2.3-2.23,3.36-3.44.56-.64-.18-1.8-1-1.26a20.43,20.43,0,0,0-4,3.79c.43-3.45,1.38-13.67-3.15-14.3a1,1,0,0,0-1.23.7l-.12.42a.92.92,0,0,0,1.12,1.13c1.79,1.87,1.32,7.82,1.2,9.82a33.07,33.07,0,0,1-.53,4.1,30.39,30.39,0,0,1-1.62-5.14c-.17-.8-1.36-.46-1.21.33a34.72,34.72,0,0,0,2.28,7.32c-.28,1.11-.6,2.21-1,3.29a52.07,52.07,0,0,1-6.13,12,29.6,29.6,0,0,1-.75-6.11.53.53,0,0,0-1.05,0,34.24,34.24,0,0,0,.71,7.7q-1.56,2.16-3.26,4.2a79.6,79.6,0,0,1-8.17,8.36c-.18-1.86-.18-3.73-.29-5.59a.43.43,0,0,0-.86,0c-.08,2.26,0,4.55-.27,6.8-1.49,1.26-3,2.47-4.6,3.61a50.91,50.91,0,0,1-5.26,3.29,14.54,14.54,0,0,0,1.84-4.88.52.52,0,0,0-1-.28,18.19,18.19,0,0,1-4.55,7.22c-1.63.89-3.23,1.81-4.75,2.83-.39-3.78-.76-7.56-1.08-11.36-1-11.33-1.61-22.66-2.07-34a17,17,0,0,0,8.88-6.84,43.19,43.19,0,0,0,9.69-2.37c.68-.3.31-1.38-.37-1.37a34.79,34.79,0,0,0-7.83,1.36,49.89,49.89,0,0,0,4.36-11c.1-.34.17-.69.27-1a8.48,8.48,0,0,0,2.33-3.87.63.63,0,0,0-1.05-.61c-.1.08-.2.18-.31.28a70.88,70.88,0,0,0,1.22-8.7,11.37,11.37,0,0,0,2.67-3.74.58.58,0,0,0-.85-.65,6.75,6.75,0,0,0-1.67,1.46,47.09,47.09,0,0,0-2.52-17.31c-.33-.89-2-.86-1.82.25a147.15,147.15,0,0,1,1.63,17c-1.07-1.91-2.13-3.83-3.24-5.72-.32-.55-1.11-.07-.84.49,1.32,2.72,2.73,5.4,4.06,8.13a53.57,53.57,0,0,1-1,9.08c-.13.66-.27,1.33-.42,2-1-2.12-2-4.25-3.07-6.37-.23-.46-1-.13-.84.35,1.11,2.78,2.28,5.52,3.36,8.31a41.45,41.45,0,0,1-5,12.42L277,112a50,50,0,0,0-1.7-7.72.5.5,0,0,0-1,.27,47.82,47.82,0,0,1,1.13,8.51.82.82,0,0,0,.64.8,17.44,17.44,0,0,1-6.17,4.91c-.49-12.55-.79-25.11-1.13-37.67a20.78,20.78,0,0,0,2-4.8c.1-.45-.5-.9-.83-.49a14,14,0,0,0-1.3,2q-.12-4.36-.25-8.73l.55.37a.64.64,0,0,0,.88-.23,25.07,25.07,0,0,0,2.58-5.44c.12-.5-.56-1-.92-.54a21.16,21.16,0,0,0-2.5,4.7c-.21-.14-.44-.27-.65-.42-.25-7.94-.55-15.89-1-23.83a.67.67,0,0,0-1.33,0c-.26,7.17-.37,14.36-.4,21.57-.39-.38-.79-.77-1.18-1.17a.39.39,0,0,0-.62.47,12.81,12.81,0,0,0,1.8,2.24c0,4.11,0,8.24.07,12.36a26.85,26.85,0,0,0-2.58-2.42c-.5-.4-1.21.28-.72.72A23.35,23.35,0,0,1,265.76,81q.19,11.91.73,23.84c-2.69-4.38-5.39-8.67-7.65-13.3a16.88,16.88,0,0,0,1-4.56.66.66,0,0,0-1.21-.33,11.18,11.18,0,0,0-.86,2.62.61.61,0,0,0,0-.12c-1-2.23-1.84-4.49-2.62-6.77l.09,0a.72.72,0,0,0,.9-.69c0-2.26.24-4.48.4-6.73.06-.71-1-.83-1.22-.17a20.3,20.3,0,0,0-.64,5.92l-.09,0c-1.32-4.09-2.4-8.25-3.37-12.46-.14-.59-1.15-.47-1.08.15a83.71,83.71,0,0,0,2.23,11.38,25.14,25.14,0,0,1-4.41-2.74c-.47-.36-1.08.44-.63.82a26.28,26.28,0,0,0,5.46,3.48c.78,2.71,1.71,5.4,2.76,8.05a27,27,0,0,0-3.46-1.16.45.45,0,0,0-.24.87,38.43,38.43,0,0,1,4.45,2.1,68.51,68.51,0,0,0,10.05,16.87.69.69,0,0,0,.34.24c.75,15.73,1.87,31.42,3.24,47a.83.83,0,0,0-1.23-.28c-.88-.41-4.53-3.79-5.86-5-.35-3.54-.75-7.33-2-10.5-.28-.71-1.49-.7-1.43.19a70.64,70.64,0,0,0,1.27,8.34c-1.1-1-2.18-2.06-3.23-3.14q-1.35-1.41-2.64-2.88a.94.94,0,0,0,.12-.4c.18-3.14,0-6.76-1.51-9.59-.37-.7-1.29-.18-1.18.5a61.91,61.91,0,0,1,1.09,7.71,79.35,79.35,0,0,1-5.72-7.81c-1.14-1.8-2.19-3.64-3.17-5.52a2.1,2.1,0,0,0,1.67-1.7,16,16,0,0,0,.24-3.72,15.94,15.94,0,0,0-.26-4.63.6.6,0,0,0-1.14,0,20.07,20.07,0,0,0-.17,3.88c0,1.32.29,3.34-.6,4.34a2.26,2.26,0,0,1-.48.43,88.62,88.62,0,0,1-7.34-21.34c-.2-.91-1.51-.5-1.38.38a75.71,75.71,0,0,0,6.25,20.85c-.44-.1-.88-.2-1.31-.32-1.23-.36-3.29-.88-4.06-2,.15.2.48,0,.34-.2l-.12-.19a.19.19,0,0,0-.17-.1c-1,.07-.61.85-.18,1.37,1.22,1.5,4.08,2.38,6.15,2.78a78.58,78.58,0,0,0,8.88,14.29,26.11,26.11,0,0,0-4,.67c-.66.17-.38,1.13.28,1a24.52,24.52,0,0,1,4.71-.5,69.91,69.91,0,0,0,9.08,9.28c-1.74.11-3.49.12-5.24.23a.61.61,0,0,0,0,1.22c2.22.09,4.45,0,6.67.19a.71.71,0,0,0,.43-.14,60.56,60.56,0,0,0,5.82,4.05,1.09,1.09,0,0,0,1.09,0l.15-.09a1,1,0,0,0,.36-.4c1,11.63,2.29,23.29,3.86,34.92a1.22,1.22,0,0,0-1.12.26c-3.18-1.36-6.27-2.86-9.28-4.47a24.59,24.59,0,0,0-.72-5.1.66.66,0,0,0-1.29.18,19.82,19.82,0,0,0,.15,3.9q-5.14-2.87-10-6.19a8.74,8.74,0,0,0-.88-4.07c-.38-.73-1.41-.19-1.26.54s.31,1.57.42,2.34a128.77,128.77,0,0,1-11.33-9.09,13.4,13.4,0,0,1-.29-1.68,36.35,36.35,0,0,0-.22-3.92c-.15-.64-1-.49-1.17,0a7.6,7.6,0,0,0-.35,3.72q-4.11-3.85-7.91-8.05a24.86,24.86,0,0,1-1.19-6.18.66.66,0,0,0-1.29-.17,7.3,7.3,0,0,0,.07,3.65q-4.42-5.16-8.42-10.76c-.51-.73-1.69-.08-1.21.71a105.92,105.92,0,0,0,8.24,11.76l-1.24-.25c-.8-.16-1.59-.33-2.39-.48-.17,0-.63,0-1,0l0,0a1.65,1.65,0,0,0-.58-.07.33.33,0,0,0-.15.55c.78.73,2.37.86,3.35,1.1s2.23.51,3.33.81a116,116,0,0,0,11.34,11.7c-2.23-.11-4.46-.3-6.69-.45-.66,0-.62.92,0,1,2.57.31,5.16.56,7.72,1a.91.91,0,0,0,.56-.1,120.76,120.76,0,0,0,10.07,7.8,57.53,57.53,0,0,0-6.33-1c-.58,0-.65.82-.13,1,2.5.81,5.19,1.22,7.76,1.78a.79.79,0,0,0,.79-.28q5.22,3.48,10.75,6.43c0,.09,0,.19,0,.29-2.39-.45-4.8-1-7.21-1.19-.6-.06-.68.86-.14,1,2.6.78,5.36,1.19,8,1.75a.73.73,0,0,0,.91-.69c0-.12,0-.24,0-.35q5.26,2.72,10.75,4.93c1.48,10.5,3.22,21,5.31,31.36a20,20,0,0,1-4.62-1.2c-.75-2.33-1.54-4.67-2.45-6.92-.36-.91-1.8-.57-1.51.42.58,1.94,1.26,3.88,2,5.8l-.72-.23q-4.05-1.22-8-2.7c-1.13-.43-2.25-.88-3.37-1.35a22.78,22.78,0,0,0-2.22-5.51.62.62,0,0,0-1.13.48,17.75,17.75,0,0,0,1.22,4.11,99.48,99.48,0,0,1-10.79-5.5l-.35-.22a58.8,58.8,0,0,0-2.12-6.75.72.72,0,0,0-1.38.39,49,49,0,0,0,1.38,5,76.82,76.82,0,0,1-12-9.6l-.3-2.18a18.47,18.47,0,0,0-1-5c-.21-.49-.84-.17-.89.24a19.67,19.67,0,0,0,.51,5.11l0,.09a104.66,104.66,0,0,1-9.48-11.39.52.52,0,0,0-.9.53,51.43,51.43,0,0,0,11,14.79c0,.18,0,.37.08.56-2.13-.63-4.22-1.46-6.32-2.19-.58-.19-.79.68-.25.9,2.35.93,4.79,1.73,7.07,2.84a.68.68,0,0,0,1-.64,81.7,81.7,0,0,0,11.14,8.32,50.84,50.84,0,0,0-7.35-.67.43.43,0,0,0-.11.85,80,80,0,0,0,9.52,1.54.87.87,0,0,0,.58-.1,100.32,100.32,0,0,0,10.62,5.33l-7,.25a.54.54,0,0,0,0,1.08c3.12,0,6.25,0,9.37,0a.75.75,0,0,0,.45-.18c1,.42,2.09.84,3.15,1.24,2.84,1,5.72,2,8.62,2.83a56.31,56.31,0,0,0-7.76.75c-.62.11-.48,1.2.15,1.12a51,51,0,0,1,9.56-.41.73.73,0,0,0,.74-.61,12.4,12.4,0,0,0,4.36.82c2.52,12.25,5.53,24.38,9.15,36.31a1.07,1.07,0,0,0,2.06-.57q-4.45-16.37-7.92-32.88c2.18-1,4.33-2,6.43-3.17a8,8,0,0,0,6.34,1.86.64.64,0,0,0,.15-1.16c-1.22-.61-3.31-.89-4.85-1.62A94.38,94.38,0,0,0,302,220.27a.75.75,0,0,0,.73.82,47,47,0,0,0,6.05,0c.7-.08,1-1.23.19-1.36a38.24,38.24,0,0,0-5.46-.21c0-.16,0-.31,0-.47a107.6,107.6,0,0,0,11.14-10.29l1-1.08a18.58,18.58,0,0,1,5.66,1.27c.81.29,1.25-.91.57-1.34a10.26,10.26,0,0,0-4.84-1.47c4.89-5.52,14.58-17.33,8.62-17.93-1.22-.12-1.3,1.65-.28,2,.79.27-8.29,12.32-9.13,13.3-.47.55-1,1.08-1.45,1.63-.12-2.26-.16-4.53-.26-6.79a.46.46,0,0,0-.92,0c0,2.75,0,5.5-.14,8.25q-3.52,3.79-7.39,7.27c-.81.72-1.64,1.43-2.48,2.13.1-1.88.23-3.77.28-5.65,0-.58-.82-.55-.88,0-.27,2.22-.42,4.46-.65,6.69a130.5,130.5,0,0,1-12.54,8.9,2.88,2.88,0,0,1-.18-2.27c.47-1.75,2.43-2.88,1.45-4.8-.31-.6-1.16-.08-.89.51.61,1.31-1.57,3-1.91,4.21a4.53,4.53,0,0,0,.32,3.11c-1.83,1.13-3.67,2.23-5.54,3.31q-2.6-12.42-4.69-24.93a17,17,0,0,0,8.05-2.79c1.57.22,3.16.35,4.74.5a20.42,20.42,0,0,0,5.11.25c.69-.11.54-1.06,0-1.26a19.19,19.19,0,0,0-4.73-.63c-1-.09-2-.19-3-.27,1.25-.87,2.42-1.78,3.5-2.64,2.55-2,5-4.14,7.46-6.32a58.83,58.83,0,0,1,9.83.78.72.72,0,0,0,.36-1.33,19.09,19.09,0,0,0-8.16-1.29c2.32-2.13,4.61-4.3,6.85-6.47,1.34-1.3,2.7-2.64,4-4a54.29,54.29,0,0,0,8.05-2.47c.78-.36.17-1.38-.53-1.27a31.5,31.5,0,0,0-5.27,1.38,92.16,92.16,0,0,0,10-12.48c2.47.18,5.41-1.44,5.85-3.84.12-.65-.65-1.22-1.16-.68-1.15,1.2-2.1,2.55-3.65,2.86a47.67,47.67,0,0,0,5.4-12.22C331.45,149.8,329.7,149,329.19,150.11Z" transform="translate(-214.55 -43.05)"/></svg>