<svg id="Layer_1" data-name="Layer 1" xmlns="http://www.w3.org/2000/svg" viewBox="0 0 128.24 214.86"><defs><style>.cls-1{fill:#3caa49;}.cls-2{fill:#026735;}</style></defs><title>Untitled-1</title><path class="cls-1" d="M196.25,76.26c-6-6.93-13.2-12.74-20.68-18-6.86-4.81-14.82-10.61-23.33-11.77a3.06,3.06,0,0,0-3.28.21c-12.43,9.2-25.91,17.63-36.3,29.23a100.09,100.09,0,0,0-21,37.63,98.52,98.52,0,0,0,11.58,82.09c8.37,12.91,20.28,25.61,34.33,32.38a5,5,0,0,0,3.37,2c34,6.47,58.79-30.88,68.27-58.52C219.82,140.52,218.43,102,196.25,76.26ZM99.11,139.53c-.1.26-.18.52-.27.78q.09-3.42.45-6.83l0,.1A51,51,0,0,0,99.11,139.53Z" transform="translate(-87.38 -44.75)"/><path class="cls-2" d="M203.21,122.78c-2.22-14.86-8.74-28-17.9-39.83a181.36,181.36,0,0,0-15.66-17.36c-6.33-6.28-13.57-12-18.11-19.79l.07-.1a.44.44,0,0,0-.61-.58h0a.53.53,0,0,0-1,0,.14.14,0,0,1,0,.06.65.65,0,0,0-.22.46h0a3.93,3.93,0,0,1-.48.55.66.66,0,0,0,0,.93c-9.29,10.35-20.69,18.53-29.57,29.37s-16,23.5-19.5,37.31c-7.05,28-1.08,61.16,14.33,85.5A90.34,90.34,0,0,0,147,229.77c-.19,9.69-.27,19.38.15,29a.87.87,0,0,0,1.73,0c.56-9.67.59-19.43.53-29.18,6.87-2.85,14.24-5.33,20.63-9.11,5.55-3.28,9.66-8.32,13.3-13.56a118.25,118.25,0,0,0,17.92-40.81A116.83,116.83,0,0,0,203.21,122.78Zm-40.82,19.79c-1.46-26-8-51.41-9.87-77.4,2.4,7.64,6.67,14.93,9.86,22.12,6.44,14.53,11.57,30.16,11.64,46.2s-5.07,31.85-9.54,47c-3.18,10.79-6.79,21.42-10.64,32C159.5,189.64,163.69,166,162.39,142.57Zm4,38.45c4.29-14.49,9.08-29.63,9.5-44.85.39-14.48-3.4-28.69-8.76-42-5.44-13.55-15.57-27.27-15.39-42.31,3.41,13.16,13.21,24.16,20,35.6C180.81,102.6,187,119.26,188.14,137a100.71,100.71,0,0,1-9.53,49.68c-6.74,14-16.76,25.79-27,37.34C157.23,209.94,162.09,195.54,166.37,181ZM150.88,57.69c.1.89.25,1.77.42,2.65-.58,27,7.4,53.47,9.12,80.34,1.8,28-5,54.69-11,81.79,0-5.64-.09-11.27,0-16.88q.18-27.09.37-54.17C149.92,120.17,150.48,88.93,150.88,57.69ZM149.42,51c0,.28,0,.55,0,.82-13.92,25.62-23.24,54.84-23.67,84.12-.45,30.39,9.86,59.25,20.43,87.31-8.51-12.86-16.91-25.95-22.64-40.31a119,119,0,0,1-7.89-49.63c.73-16.52,3.28-35.28,11.79-49.76C134.07,72.16,143.78,62.92,149.42,51Zm-2.35,177c-32.3-18.45-48.85-55.61-48.28-92.14a91.69,91.69,0,0,1,17.46-52.5,136.36,136.36,0,0,1,17.57-19.77c5.11-4.78,10.92-9.07,15.35-14.53-6.42,13.34-17.85,23.35-24.7,36.43-7.58,14.49-9.93,32.59-10.55,48.75a119.89,119.89,0,0,0,8.29,50c6.32,15.52,15.61,29.56,24.87,43.44C147.07,227.72,147.07,227.84,147.07,228Zm.14-6.45c-10-27-19.88-54.65-19.83-83.78,0-29.44,9.64-57.09,21.86-83.46,0,.31,0,.62-.05.93C138.89,79.82,134.35,107.48,134,134c-.37,29.1,6.11,57,12.59,85.23a.69.69,0,0,0,.63.58Zm.66-70.09q-.18,26.6-.38,53.18c0,3.43-.08,6.86-.15,10.3-5.72-26.52-11.77-52.6-11.55-80,.21-26.32,5.42-51.37,13.25-76.28C147.55,89.52,148.09,120.56,147.87,151.42Zm42.07,40.84c-4.11,8.08-9.06,16.71-15.8,22.89-6.18,5.68-14.83,8.68-22.7,11.87,10.95-11.6,21.37-24.27,28.39-38.64a102.48,102.48,0,0,0,10.25-47.95c-.5-16.53-5.24-32.39-13-47-7.85-14.82-19.09-27.39-24.6-43.32,3.65,5.47,8.72,9.81,13.47,14.42a184.77,184.77,0,0,1,18.73,20.61,86.22,86.22,0,0,1,17.87,52.31A117.41,117.41,0,0,1,189.94,192.26Z" transform="translate(-87.38 -44.75)"/></svg>