<svg id="Layer_1" data-name="Layer 1" xmlns="http://www.w3.org/2000/svg" viewBox="0 0 156.6 264.92"><defs><style>.cls-1{fill:#95c13d;}.cls-2{fill:#026735;}</style></defs><title>leaf3</title><path class="cls-1" d="M358.88,202.43a92.65,92.65,0,0,0-.4-43.3c-.94-3.61-6.24-4.37-8.06-1a22.28,22.28,0,0,1-3.48,4.78,74.17,74.17,0,0,0-2-10.38,78.51,78.51,0,0,0-6.31-17.09,80.28,80.28,0,0,0-23.2-27.62c-2.9-2.22-6.25.9-6.53,3.75a18.39,18.39,0,0,1-1.78,6.31c-9.73-13.89-17-28.64-20.75-45.33-.89-3.93-6.56-3.59-7.62,0-5.12,17.23-13.48,32.91-23.91,47.46a12.12,12.12,0,0,1-3.78-5.23,3.9,3.9,0,0,0-7-.91A194.72,194.72,0,0,0,232.36,137c-3,7-6.36,14.56-7.92,22.09A30.73,30.73,0,0,1,220,153.2a4.16,4.16,0,0,0-7.12,0c-7.17,12.66-7.25,27.14-5.37,41.2a125.38,125.38,0,0,0,4,20.52c1.24,4,2.9,8.79,5.65,12.38-2.17-1-4.38-1.93-6.68-3-3.06-1.38-6.61.89-5.75,4.42,3.1,12.81,15.61,24,26.35,30.67,13.75,8.51,29.85,12.15,45.86,12.87,15.69.7,32.43-.6,47.61-4.84,12.75-3.56,24.95-10.22,31.28-22.32a4.54,4.54,0,0,0-2.68-6.59c-3.07-.75-6.13-1.53-9.19-2.28,3.34-3.83,5.76-9.41,7.63-13.28A96,96,0,0,0,358.88,202.43Zm-42.43-81,.3-.84a.7.7,0,0,0,0-.14c.31.3.61.62.91.92A6.41,6.41,0,0,0,316.45,121.41Z" transform="translate(-204.65 -69.68)"/><path class="cls-2" d="M356.12,174.54a15.08,15.08,0,0,1-8.68,1.19q4-5.56,7.34-11.41a.87.87,0,0,0-1.51-.88,197.16,197.16,0,0,1-16.65,22,33.67,33.67,0,0,1,2.84-15.24c.32-.73-.7-1.39-1.1-.64a27.17,27.17,0,0,0-2.68,16.95c-11,12.18-23.64,22.37-38.71,28.65a.29.29,0,0,0,.06-.24c-1-9,.1-17.33,4.35-25.45.36-.7-.67-1.31-1.06-.62A35.85,35.85,0,0,0,296.15,215a.41.41,0,0,0,.36.3,86.64,86.64,0,0,1-9.75,3.32.59.59,0,0,0-.26.07c-2.33.64-4.71,1.22-7.16,1.67-.09-6.6-.17-13.2-.19-19.8q0-7.77,0-15.54a68.44,68.44,0,0,0,13.45-14.27,52.83,52.83,0,0,0,28.4-3.38c.76-.32.22-1.59-.56-1.34a71.24,71.24,0,0,1-27,3.49,145.42,145.42,0,0,0,9.53-15.8,135.74,135.74,0,0,0,8-18.22c5.69.07,10.16-4.36,13.18-8.76.41-.6-.51-1.3-1-.78-3.47,3.68-6.47,7.78-11.79,8.42a90,90,0,0,0,4.36-18.78c.1-.9-1.35-1.07-1.56-.21-2.51,10.26-5.17,20.08-9.23,29.64-4.9-6.18-4-15.84-3.61-23.22,0-.8-1.28-1-1.42-.19-1.25,7.25-1.71,19.24,4.54,24.54-1.07,2.46-2.24,4.9-3.53,7.32A132.22,132.22,0,0,1,290.57,170c-3.53,4.79-7.72,9-11.41,13.64,0-8.64.17-17.27.33-25.91A35.77,35.77,0,0,0,291,146.32c.34-.6-.52-1.33-1-.76a70.68,70.68,0,0,1-10.46,10.76q.51-26,1.66-52.07c4.14-1.31,8.44-5.88,9.75-9.91.25-.76-.85-1.17-1.25-.53a32.78,32.78,0,0,1-3.79,5.55,30.69,30.69,0,0,1-4.66,3.65q.63-13.86,1.43-27.71a.86.86,0,0,0-.06-.34c.13-1.19.24-2.38.38-3.56.08-.76-1.23-.94-1.34-.18-.18,1.34-.36,2.68-.53,4,0,0,0,0,0,0v.1c-1.89,14.38-3.28,28.82-4.34,43.28a48.56,48.56,0,0,1-2.39-14,.65.65,0,0,0-1.29,0,33.22,33.22,0,0,0,3.13,15.42.42.42,0,0,0,.43.24c-1.21,16.92-2,33.87-2.57,50.82a62.13,62.13,0,0,1-16.2-15c5.75-7.48,7.8-18.26,5.92-27.37a.67.67,0,0,0-1.31.18c.71,9.69-1.26,17.44-5.56,25.89a55.66,55.66,0,0,1-5-8.71.43.43,0,0,0-.23-.49,54.64,54.64,0,0,1-4.39-27.25c0-.58-.93-.72-1-.14a53.88,53.88,0,0,0,3.06,26.73,13.89,13.89,0,0,1-8.21-6.62c-.39-.7-1.36-.08-1,.62a12.79,12.79,0,0,0,9.85,7.52,54,54,0,0,0,14.77,20.77c-6.25,1.25-11.61,1.47-17.64-1.31-.72-.33-1.36.69-.63,1.09,5.59,3.14,13.33,4.14,19.13.93a44.2,44.2,0,0,0,8.42,5.4c-.08,2.11-.14,4.22-.21,6.33-.5,15.71-1,31.47-1.49,47.22l-1.42-.4h0a82.93,82.93,0,0,1-9.21-3.29,18.73,18.73,0,0,0-4.71-19.25c-.57-.57-1.44.3-.89.89a19,19,0,0,1,4.66,17.95,79,79,0,0,1-21.88-14.26,31.17,31.17,0,0,0-2.89-30.28c-.4-.57-1.32-.06-.95.56a33.76,33.76,0,0,1,3.09,29,78.32,78.32,0,0,1-18.24-26.35l.11-.06a18.18,18.18,0,0,0,6.22-14.6.6.6,0,0,0-1.2,0,19.53,19.53,0,0,1-5.55,13.62,86.92,86.92,0,0,1-5.7-21.84c0-.44-.72-.47-.7,0a71.92,71.92,0,0,0,8.79,31.77c-3.6,0-6.66-5.23-7.79-8-.27-.68-1.35-.43-1.13.31,1,3.37,5.2,10.21,9.58,8.91a78.81,78.81,0,0,0,14.7,18.72.46.46,0,0,0,.46.41,78,78,0,0,0,10.15,7.94c-6.64,4.38-14.09,4.77-21.48,1.75-.77-.32-1.28.94-.56,1.34a21.09,21.09,0,0,0,23.22-2.33,73.67,73.67,0,0,0,23.28,9.69q-.35,12.69-.54,25.38c-3.45-.16-6.83-.34-10.19-.62a22.11,22.11,0,0,0-3.85-8c-.32-.39-.88.1-.67.51a56.7,56.7,0,0,1,3.44,7.38,83.34,83.34,0,0,1-19-3.67A81.81,81.81,0,0,1,228,244.19a12.27,12.27,0,0,0-4.07-9.6.36.36,0,0,0-.52.51,13.87,13.87,0,0,1,3.88,8.72,117.63,117.63,0,0,1-13.18-8.55c-.36-.27-.8.32-.47.62a81.09,81.09,0,0,0,26.68,16,17,17,0,0,1-9.58,3.21c-.46,0-.64.78-.12.86a12.88,12.88,0,0,0,10.65-3.73c10,3.53,20.56,5.16,30.37,4-.15,10.95-.21,21.9-.09,32.84a215.73,215.73,0,0,0,1.57,27c.73,5.29,1.91,13.54,6.4,17.21,2.07,1.69,5.74,2,7-.83.94-2-.27-4.8-.72-6.77-.06-.28-.11-.56-.17-.83,0-.12,0-.24-.05-.35s0-.06,0-.1c-1-4.68-1.78-9.41-2.35-14.16-2.16-17.86-2.46-36-3.05-54,0-1.34-.07-2.68-.11-4a75.85,75.85,0,0,0,25.35,4.45.38.38,0,0,0,.06.13,12.43,12.43,0,0,0,9.3,5.57c.39,0,.48-.62.1-.69a13.05,13.05,0,0,1-8.71-5,72.24,72.24,0,0,0,30.1-6.37.37.37,0,0,0,.2.39,12,12,0,0,0,7.23,1.75.42.42,0,0,0,0-.84,15.19,15.19,0,0,1-6.75-1.62,55.84,55.84,0,0,0,9.59-5.82.9.9,0,0,0-.91-1.56,118.76,118.76,0,0,1-19.58,8.71,19.45,19.45,0,0,1,2.18-9.06.45.45,0,0,0-.78-.46,15.35,15.35,0,0,0-2.21,9.78,68.34,68.34,0,0,1-13.3,2.77,79.09,79.09,0,0,1-22.32-.93,21.62,21.62,0,0,1,4.71-9.43.3.3,0,0,0-.43-.43,16.77,16.77,0,0,0-4.9,9.75,89.26,89.26,0,0,1-9-2.18q-.45-14.77-.68-29.57c2.56-.38,5.07-.9,7.55-1.51C292.84,228.38,303.23,234,313,236c.89.17,1.28-1.14.38-1.38-10.3-2.75-17.63-7.77-25.22-14.8a94.87,94.87,0,0,0,34.34-17.59A24.77,24.77,0,0,0,346,200.94a.75.75,0,0,0-.75-1.29,26,26,0,0,1-21.64,1.73,128.66,128.66,0,0,0,23.14-24.62,12.12,12.12,0,0,0,9.9-1C357.19,175.34,356.82,174.26,356.12,174.54Z" transform="translate(-204.65 -69.68)"/></svg>